#!OML:ASF F:\VICON\USERDATA\INSTALL\rory3\rory3.ASF
:FULLY-SPECIFIED
:DEGREES
263
root -0.302271 14.8708 2.00195 -158.377 -7.52883 -180.268
lowerback 0.513138 -1.16069 5.42122
upperback -6.18875 -1.78231 -1.69048
thorax -6.984 -1.40216 -4.68066
lowerneck -23.7277 -0.213237 -3.12248
upperneck 28.6685 -0.0561197 0.286784
head 13.6922 -0.662523 0.553327
rclavicle 3.19049e-014 -1.86858e-014
rhumerus -25.8767 14.1188 -86.3776
rradius 66.644
rwrist -42.5867
rhand -0.587154 3.8872
rfingers 7.12502
rthumb 25.0279 -24.4932
lclavicle 3.19049e-014 -1.86858e-014
lhumerus -52.5078 3.02408 66.9043
lradius 40.0281
lwrist 53.7286
lhand 0.678862 19.3349
lfingers 7.12502
lthumb 26.2404 47.5406
rfemur -30.9649 14.5837 33.7496
rtibia 58.033
rfoot -43.816 -22.2871
rtoes 17.0906
lfemur -76.3703 -9.09547 -11.9478
ltibia 86.0417
lfoot -25.8525 20.0996
ltoes -7.77187
264
root -0.293236 14.9892 1.71933 -157.819 -7.60676 -180.778
lowerback -0.0724602 -0.782312 4.67284
upperback -6.83345 -1.43759 -1.97364
thorax -7.27522 -1.26275 -4.58274
lowerneck -22.9486 -0.48526 -3.20837
upperneck 29.1649 -0.750619 0.831273
head 13.7555 -0.940017 0.649824
rclavicle 1.44616e-014 2.54444e-014
rhumerus -25.7242 14.7198 -86.1993
rradius 70.5706
rwrist -46.6988
rhand 0.54576 3.60483
rfingers 7.12502
rthumb 26.113 -24.6198
lclavicle 1.44616e-014 2.54444e-014
lhumerus -55.925 1.65264 67.6756
lradius 42.9613
lwrist 55.8529
lhand 3.20704 18.073
lfingers 7.12502
lthumb 28.6584 45.895
rfemur -29.1663 15.6505 33.3913
rtibia 55.6999
rfoot -42.308 -22.6155
rtoes 18.1792
lfemur -78.1333 -10.5375 -11.268
ltibia 83.8003
lfoot -24.4208 18.3943
ltoes -7.32974
265
root -0.283342 15.1207 1.42739 -157.563 -7.25468 -182.267
lowerback 0.0259879 -0.378297 2.78664
upperback -7.55388 -1.12896 -2.61022
thorax -8.03967 -1.09705 -4.20394
lowerneck -21.9865 -0.813439 -3.14831
upperneck 29.6771 -1.59284 1.27521
head 13.7947 -1.29079 0.655544
rclavicle 7.20594e-015 7.95139e-015
rhumerus -26.0832 15.0461 -85.9928
rradius 74.5567
rwrist -50.6472
rhand 1.2845 4.35819
rfingers 7.12502
rthumb 26.8201 -23.7599
lclavicle 7.20594e-015 7.95139e-015
lhumerus -59.5813 -0.0825117 68.6086
lradius 45.9517
lwrist 57.8194
lhand 5.04906 17.6339
lfingers 7.12502
lthumb 30.4168 45.1449
rfemur -26.8359 16.7865 32.0769
rtibia 53.4954
rfoot -40.956 -23.445
rtoes 18.4044
lfemur -78.9887 -12.0016 -11.9369
ltibia 81.2271
lfoot -22.8664 16.3919
ltoes -6.58609
266
root -0.280095 15.2551 1.12744 -157.396 -7.33208 -183.064
lowerback -0.607716 -0.0352459 1.60445
upperback -7.77236 -0.810572 -2.93747
thorax -7.85926 -0.90168 -3.90623
lowerneck -21.3104 -1.26598 -3.36536
upperneck 29.7192 -2.50843 2.00315
head 13.7087 -1.63196 0.81728
rclavicle -2.0773e-014 -7.95139e-016
rhumerus -25.7438 15.0396 -85.2854
rradius 78.1244
rwrist -53.722
rhand 3.87364 2.8295
rfingers 7.12502
rthumb 29.2951 -24.8831
lclavicle -2.0773e-014 -7.95139e-016
lhumerus -62.4664 -1.31944 69.6918
lradius 48.9332
lwrist 59.6981
lhand 6.37648 17.5901
lfingers 7.12502
lthumb 31.682 44.8593
rfemur -24.5595 17.6278 31.5632
rtibia 51.3535
rfoot -39.6207 -23.7807
rtoes 18.3739
lfemur -79.823 -13.3193 -11.9567
ltibia 78.5721
lfoot -21.1733 14.3999
ltoes -8.0695
267
root -0.236085 15.3838 0.837356 -156.541 -5.75237 -183.006
lowerback -2.60771 0.839656 -0.154813
upperback -7.73782 0.284002 -2.89488
thorax -6.5767 -0.253249 -2.91232
lowerneck -21.4084 -1.70309 -3.78187
upperneck 29.6879 -3.23799 2.77358
head 13.7658 -1.87868 1.06454
rclavicle -3.50358e-014 4.37326e-015
rhumerus -24.3353 15.2331 -84.1156
rradius 81.2037
rwrist -56.922
rhand 5.38431 2.75252
rfingers 7.12502
rthumb 30.7365 -24.6988
lclavicle -3.50358e-014 4.37326e-015
lhumerus -64.3064 -1.77091 70.7874
lradius 51.8021
lwrist 61.0293
lhand 7.52979 17.3927
lfingers 7.12502
lthumb 32.7798 44.4391
rfemur -23.552 19.5046 31.006
rtibia 49.4374
rfoot -37.1942 -23.0761
rtoes 17.6519
lfemur -81.1831 -12.4596 -11.6796
ltibia 75.8537
lfoot -19.6433 12.3549
ltoes -11.2111
